<svg xmlns="http://www.w3.org/2000/svg" width="960" height="540" viewBox="0 0 960 540" fill="none">
  <rect width="960" height="540" rx="24" fill="#0F172A"/>
  <rect x="48" y="48" width="864" height="444" rx="20" fill="#111827" stroke="#334155" stroke-width="2"/>
  <rect x="84" y="88" width="792" height="44" rx="12" fill="#1E293B"/>
  <circle cx="112" cy="110" r="8" fill="#F97316"/>
  <circle cx="140" cy="110" r="8" fill="#38BDF8"/>
  <circle cx="168" cy="110" r="8" fill="#22C55E"/>
  <text x="196" y="116" fill="#E2E8F0" font-family="Segoe UI, Arial, sans-serif" font-size="20" font-weight="700">conflictcast preview</text>
  <rect x="84" y="160" width="360" height="280" rx="18" fill="#0B1220" stroke="#334155"/>
  <text x="108" y="200" fill="#F8FAFC" font-family="Segoe UI, Arial, sans-serif" font-size="24" font-weight="700">PR #47</text>
  <text x="108" y="234" fill="#FB923C" font-family="Segoe UI, Arial, sans-serif" font-size="20" font-weight="700">Potential Merge Conflict Detected</text>
  <text x="108" y="274" fill="#CBD5E1" font-family="Segoe UI, Arial, sans-serif" font-size="18">Shared file:</text>
  <rect x="108" y="292" width="312" height="44" rx="10" fill="#1E293B"/>
  <text x="124" y="320" fill="#E2E8F0" font-family="Consolas, monospace" font-size="18">src/auth/middleware.ts</text>
  <text x="108" y="372" fill="#CBD5E1" font-family="Segoe UI, Arial, sans-serif" font-size="18">Overlapping hunks:</text>
  <text x="108" y="404" fill="#E2E8F0" font-family="Consolas, monospace" font-size="18">PR #47 10-12 vs PR #52 11-13</text>
  <rect x="492" y="160" width="384" height="280" rx="18" fill="#0B1220" stroke="#334155"/>
  <text x="516" y="200" fill="#F8FAFC" font-family="Segoe UI, Arial, sans-serif" font-size="24" font-weight="700">Check Run: conflictcast</text>
  <rect x="516" y="228" width="168" height="36" rx="10" fill="#7C2D12"/>
  <text x="548" y="252" fill="#FED7AA" font-family="Segoe UI, Arial, sans-serif" font-size="18" font-weight="700">HIGH RISK</text>
  <text x="516" y="304" fill="#CBD5E1" font-family="Segoe UI, Arial, sans-serif" font-size="18">PR pair</text>
  <text x="640" y="304" fill="#CBD5E1" font-family="Segoe UI, Arial, sans-serif" font-size="18">Risk</text>
  <text x="740" y="304" fill="#CBD5E1" font-family="Segoe UI, Arial, sans-serif" font-size="18">Shared files</text>
  <line x1="516" y1="320" x2="848" y2="320" stroke="#334155"/>
  <text x="516" y="352" fill="#F8FAFC" font-family="Segoe UI, Arial, sans-serif" font-size="18">#47 vs #52</text>
  <text x="640" y="352" fill="#FB923C" font-family="Segoe UI, Arial, sans-serif" font-size="18" font-weight="700">HIGH</text>
  <text x="740" y="352" fill="#F8FAFC" font-family="Consolas, monospace" font-size="16">auth/middleware.ts</text>
  <text x="516" y="412" fill="#94A3B8" font-family="Segoe UI, Arial, sans-serif" font-size="16">Checks and comments surface the same pairwise risk</text>
  <text x="516" y="436" fill="#94A3B8" font-family="Segoe UI, Arial, sans-serif" font-size="16">before either PR merges into the base branch.</text>
</svg>
